<svg width="28" height="28" viewBox="0 0 28 28" fill="none" xmlns="http://www.w3.org/2000/svg">
<path d="M25.6667 18.8883C25.6667 23.135 23.135 25.6666 18.8884 25.6666H17.5C16.8584 25.6666 16.3334 25.1416 16.3334 24.5V17.7683C16.3334 17.4533 16.59 17.185 16.905 17.185L18.9584 17.15C19.1217 17.1383 19.2617 17.0217 19.2967 16.8583L19.7051 14.63C19.7401 14.42 19.5767 14.2216 19.355 14.2216L16.87 14.2566C16.5434 14.2566 16.2867 14 16.2751 13.685L16.2284 10.8266C16.2284 10.64 16.38 10.4767 16.5784 10.4767L19.3784 10.43C19.5767 10.43 19.7284 10.2783 19.7284 10.08L19.6817 7.27997C19.6817 7.08163 19.53 6.92998 19.3317 6.92998L16.1817 6.97666C14.245 7.01166 12.7051 8.59831 12.7401 10.535L12.7984 13.7433C12.81 14.07 12.5534 14.3267 12.2267 14.3383L10.8267 14.3616C10.6284 14.3616 10.4767 14.5133 10.4767 14.7116L10.5117 16.9283C10.5117 17.1267 10.6634 17.2783 10.8617 17.2783L12.2617 17.255C12.5884 17.255 12.845 17.5116 12.8567 17.8266L12.9617 24.4767C12.9734 25.13 12.4484 25.6666 11.795 25.6666H9.1117C4.86504 25.6666 2.33337 23.135 2.33337 18.8766V9.11164C2.33337 4.86498 4.86504 2.33331 9.1117 2.33331H18.8884C23.135 2.33331 25.6667 4.86498 25.6667 9.11164V18.8883Z" fill="#FFFDF9"/>
</svg>
