<svg width="51" height="51" viewBox="0 0 51 51" fill="none" xmlns="http://www.w3.org/2000/svg">
<path d="M25 0C11.25 0 0 11.45 0 25.45L0 45.175C0 48.325 1.875 49.175 4.175 47.075L6.675 44.8C7.6 43.95 9.1 43.95 10.025 44.8L15.025 49.375C15.95 50.225 17.45 50.225 18.375 49.375L23.375 44.8C24.3 43.95 25.8 43.95 26.725 44.8L31.725 49.375C32.65 50.225 34.15 50.225 35.075 49.375L40.075 44.8C41 43.95 42.5 43.95 43.425 44.8L45.925 47.075C48.225 49.175 50.1 48.325 50.1 45.175L50.1 25.45C50 11.45 38.75 0 25 0ZM25 11.55C28.275 11.55 30.95 14.225 30.95 17.5C30.95 20.775 28.275 23.45 25 23.45C21.725 23.45 19.05 20.775 19.05 17.5C19.05 14.225 21.725 11.55 25 11.55ZM36.125 31.5C32.85 33.95 28.925 35.175 25 35.175C21.075 35.175 17.15 33.95 13.875 31.5C13.05 30.875 12.875 29.7 13.5 28.875C14.125 28.05 15.3 27.875 16.125 28.5C21.35 32.425 28.65 32.425 33.875 28.5C34.7 27.875 35.875 28.05 36.5 28.875C37.125 29.7 36.95 30.875 36.125 31.5Z" fill="#FFFDF9"/>
</svg>
