<svg width="607" height="606" viewBox="0 0 607 606" fill="none" xmlns="http://www.w3.org/2000/svg">
<path d="M303 0.5C136.625 0.5 0.5 139.045 0.5 308.445V547.118C0.5 585.233 23.1875 595.518 51.0175 570.108L81.2675 542.58C92.46 532.295 110.61 532.295 121.803 542.58L182.303 597.938C193.495 608.223 211.645 608.223 222.838 597.938L283.338 542.58C294.53 532.295 312.68 532.295 323.872 542.58L384.372 597.938C395.565 608.223 413.715 608.223 424.908 597.938L485.408 542.58C496.6 532.295 514.75 532.295 525.943 542.58L556.193 570.108C584.023 595.518 606.71 585.233 606.71 547.118V308.445C605.5 139.045 469.375 0.5 303 0.5ZM303 140.255C342.627 140.255 374.995 172.623 374.995 212.25C374.995 251.878 342.627 284.245 303 284.245C263.373 284.245 231.005 251.878 231.005 212.25C231.005 172.623 263.373 140.255 303 140.255ZM437.613 381.65C397.985 411.295 350.493 426.118 303 426.118C255.507 426.118 208.015 411.295 168.388 381.65C158.405 374.088 156.288 359.87 163.85 349.888C171.413 339.905 185.63 337.788 195.612 345.35C258.835 392.843 347.165 392.843 410.388 345.35C420.37 337.788 434.588 339.905 442.15 349.888C449.713 359.87 447.595 374.088 437.613 381.65Z" fill="#FFFBF3" fill-opacity="0.15"/>
</svg>
