<svg width="28" height="28" viewBox="0 0 28 28" fill="none" xmlns="http://www.w3.org/2000/svg">
<path d="M18.8884 2.33331H9.11171C4.86504 2.33331 2.33337 4.86498 2.33337 9.11165V18.8766C2.33337 23.135 4.86504 25.6666 9.11171 25.6666H18.8767C23.1234 25.6666 25.655 23.135 25.655 18.8883V9.11165C25.6667 4.86498 23.135 2.33331 18.8884 2.33331ZM14 18.5266C11.5034 18.5266 9.47337 16.4966 9.47337 14C9.47337 11.5033 11.5034 9.47331 14 9.47331C16.4967 9.47331 18.5267 11.5033 18.5267 14C18.5267 16.4966 16.4967 18.5266 14 18.5266ZM20.9067 8.02665C20.8484 8.16665 20.7667 8.29498 20.6617 8.41165C20.545 8.51665 20.4167 8.59831 20.2767 8.65665C20.1367 8.71498 19.985 8.74998 19.8334 8.74998C19.5184 8.74998 19.2267 8.63331 19.005 8.41165C18.9 8.29498 18.8184 8.16665 18.76 8.02665C18.7017 7.88665 18.6667 7.73498 18.6667 7.58331C18.6667 7.43165 18.7017 7.27998 18.76 7.13998C18.8184 6.98831 18.9 6.87165 19.005 6.75498C19.2734 6.48665 19.6817 6.35831 20.055 6.43998C20.1367 6.45165 20.2067 6.47498 20.2767 6.50998C20.3467 6.53331 20.4167 6.56831 20.4867 6.61498C20.545 6.64998 20.6034 6.70831 20.6617 6.75498C20.7667 6.87165 20.8484 6.98831 20.9067 7.13998C20.965 7.27998 21 7.43165 21 7.58331C21 7.73498 20.965 7.88665 20.9067 8.02665Z" fill="#FFFDF9"/>
</svg>
