<svg width="51" height="51" viewBox="0 0 51 51" fill="none" xmlns="http://www.w3.org/2000/svg">
<path d="M22.5864 2.60351C23.5529 -0.0083437 27.2471 -0.00833845 28.2136 2.60352L33.132 15.8955C33.4359 16.7167 34.0833 17.3641 34.9045 17.668L48.1965 22.5864C50.8083 23.5529 50.8083 27.2471 48.1965 28.2136L34.9045 33.132C34.0833 33.4359 33.4359 34.0833 33.132 34.9045L28.2136 48.1965C27.2471 50.8083 23.5529 50.8083 22.5864 48.1965L17.668 34.9045C17.3641 34.0833 16.7167 33.4359 15.8955 33.132L2.60351 28.2136C-0.0083437 27.2471 -0.00833845 23.5529 2.60352 22.5864L15.8955 17.668C16.7167 17.3641 17.3641 16.7167 17.668 15.8955L22.5864 2.60351Z" fill="#FFFDF9"/>
</svg>
