<svg width="28" height="28" viewBox="0 0 28 28" fill="none" xmlns="http://www.w3.org/2000/svg">
<path d="M26.2033 7.00002C25.305 7.40835 24.3366 7.67669 23.3333 7.80502C24.36 7.18669 25.1533 6.20669 25.5266 5.02835C24.5583 5.61169 23.485 6.02002 22.3533 6.25335C21.4316 5.25002 20.1366 4.66669 18.6666 4.66669C15.925 4.66669 13.685 6.90669 13.685 9.67169C13.685 10.0684 13.7316 10.4534 13.8133 10.815C9.65997 10.605 5.96163 8.61002 3.49996 5.58835C3.0683 6.32335 2.8233 7.18669 2.8233 8.09669C2.8233 9.83502 3.6983 11.375 5.05163 12.25C4.2233 12.25 3.4533 12.0167 2.77663 11.6667V11.7017C2.77663 14.1284 4.5033 16.1584 6.78996 16.6134C6.05581 16.8143 5.28508 16.8422 4.5383 16.695C4.85517 17.6896 5.47576 18.5598 6.31282 19.1834C7.14988 19.807 8.16132 20.1527 9.20496 20.1717C7.43587 21.5722 5.24296 22.3292 2.98663 22.3184C2.58996 22.3184 2.1933 22.295 1.79663 22.2484C4.0133 23.6717 6.64996 24.5 9.4733 24.5C18.6666 24.5 23.7183 16.87 23.7183 10.255C23.7183 10.0334 23.7183 9.82335 23.7066 9.60169C24.6866 8.90169 25.5266 8.01502 26.2033 7.00002Z" fill="#FFFDF9"/>
</svg>
