<?xml version="1.0" standalone="no"?>
<!DOCTYPE svg PUBLIC "-//W3C//DTD SVG 20010904//EN"
 "http://www.w3.org/TR/2001/REC-SVG-20010904/DTD/svg10.dtd">
<svg version="1.0" xmlns="http://www.w3.org/2000/svg"
 width="700.000000pt" height="700.000000pt" viewBox="0 0 700.000000 700.000000"
 preserveAspectRatio="xMidYMid meet">
<metadata>
Created by potrace 1.14, written by Peter Selinger 2001-2017
</metadata>
<g transform="translate(0.000000,700.000000) scale(0.100000,-0.100000)"
fill="#000000" stroke="none">
<path d="M3218 6995 c-1 -1 -41 -6 -88 -9 -376 -29 -837 -159 -1191 -337 -261
-130 -542 -318 -739 -494 -56 -50 -283 -277 -331 -330 -130 -147 -292 -374
-397 -556 -256 -447 -413 -940 -459 -1449 -10 -105 -11 -3122 -1 -3170 17 -85
34 -127 72 -179 80 -108 210 -117 366 -25 46 27 251 201 326 278 39 38 157
141 189 163 83 57 231 65 327 18 30 -14 69 -41 88 -58 53 -49 270 -247 314
-287 22 -19 58 -52 80 -73 23 -22 64 -59 91 -84 28 -25 87 -80 133 -122 124
-113 204 -150 312 -143 106 6 164 38 285 151 28 26 82 76 120 111 39 35 93 84
120 109 28 25 99 91 160 146 60 55 137 126 170 158 33 32 89 72 124 89 56 28
73 32 150 32 73 0 94 -4 141 -27 30 -14 71 -41 90 -58 19 -18 109 -100 200
-182 91 -83 214 -196 274 -251 251 -231 251 -231 324 -259 53 -21 152 -24 212
-7 54 15 120 58 192 125 29 28 78 73 108 100 156 142 281 256 335 306 33 30
79 73 103 94 23 21 59 54 80 72 71 65 150 93 251 88 102 -4 153 -31 277 -144
27 -25 90 -82 138 -126 49 -44 107 -97 130 -118 67 -62 177 -131 239 -151 162
-51 277 31 328 234 11 45 13 313 13 1540 0 1325 -3 1596 -19 1705 -9 60 -16
111 -21 155 -13 111 -101 480 -133 555 -4 11 -16 45 -26 75 -51 157 -158 394
-258 570 -446 787 -1172 1372 -2022 1628 -124 38 -290 78 -360 88 -16 2 -41 6
-55 9 -14 3 -41 7 -60 9 -105 12 -158 19 -185 23 -34 5 -511 13 -517 8z m407
-1606 c239 -58 443 -226 547 -450 53 -113 73 -211 72 -344 -1 -114 -8 -162
-42 -259 -73 -211 -232 -388 -430 -478 -130 -59 -202 -73 -362 -72 -213 2
-400 83 -555 239 -155 158 -235 346 -240 570 0 33 2 78 6 100 4 22 10 56 13
75 7 46 38 135 66 190 125 246 379 425 635 447 39 3 71 7 73 8 9 8 148 -9 217
-26z m-1489 -2263 c22 -7 90 -47 151 -88 245 -165 545 -286 800 -323 21 -3 44
-8 51 -10 22 -8 201 -19 302 -19 316 0 616 71 902 215 105 52 202 111 284 170
74 54 114 68 186 65 74 -3 127 -27 181 -82 75 -77 88 -209 30 -302 -79 -129
-506 -367 -833 -465 -114 -34 -241 -65 -298 -73 -26 -3 -65 -10 -87 -14 -137
-30 -560 -33 -712 -6 -66 12 -93 16 -128 21 -163 24 -491 131 -647 212 -29 15
-55 27 -58 28 -15 1 -227 131 -302 185 -110 78 -148 134 -153 223 -11 185 163
323 331 263z"/>
</g>
</svg>
